<mxfile host="Electron" modified="2024-02-05T09:35:42.500Z" agent="Mozilla/5.0 (Macintosh; Intel Mac OS X 10_15_7) AppleWebKit/537.36 (KHTML, like Gecko) draw.io/23.0.2 Chrome/120.0.6099.109 Electron/28.1.0 Safari/537.36" etag="llotY5rqZpxX7rjMFNID" version="23.0.2" type="device">
  <diagram name="第 1 页" id="dm5Nj5f2KzERc9XE3jcm">
    <mxGraphModel dx="3644" dy="2189" grid="1" gridSize="10" guides="1" tooltips="1" connect="1" arrows="1" fold="1" page="1" pageScale="1" pageWidth="827" pageHeight="1169" math="0" shadow="0">
      <root>
        <mxCell id="0" />
        <mxCell id="1" parent="0" />
        <mxCell id="-eo6Yc6-5UVX0u5PC9od-1" style="edgeStyle=orthogonalEdgeStyle;rounded=0;orthogonalLoop=1;jettySize=auto;html=1;exitX=1;exitY=0.5;exitDx=0;exitDy=0;entryX=0;entryY=0.5;entryDx=0;entryDy=0;shape=flexArrow;" edge="1" parent="1" source="-eo6Yc6-5UVX0u5PC9od-2" target="-eo6Yc6-5UVX0u5PC9od-7">
          <mxGeometry relative="1" as="geometry" />
        </mxCell>
        <mxCell id="-eo6Yc6-5UVX0u5PC9od-2" value="on_make_call_med_tp_complete" style="whiteSpace=wrap;html=1;" vertex="1" parent="1">
          <mxGeometry x="-1550" y="347.5" width="120" height="60" as="geometry" />
        </mxCell>
        <mxCell id="-eo6Yc6-5UVX0u5PC9od-3" style="edgeStyle=orthogonalEdgeStyle;rounded=0;orthogonalLoop=1;jettySize=auto;html=1;exitX=1;exitY=0.5;exitDx=0;exitDy=0;entryX=0;entryY=0.5;entryDx=0;entryDy=0;" edge="1" parent="1" source="-eo6Yc6-5UVX0u5PC9od-4" target="-eo6Yc6-5UVX0u5PC9od-11">
          <mxGeometry relative="1" as="geometry" />
        </mxCell>
        <mxCell id="-eo6Yc6-5UVX0u5PC9od-4" value="&lt;div style=&quot;background-color: rgb(255, 255, 255); font-family: Menlo, Monaco, &amp;quot;Courier New&amp;quot;, monospace; line-height: 18px;&quot;&gt;pjsua_media_channel_create_sdp&lt;/div&gt;" style="whiteSpace=wrap;html=1;" vertex="1" parent="1">
          <mxGeometry x="-1120" y="347.5" width="120" height="60" as="geometry" />
        </mxCell>
        <mxCell id="-eo6Yc6-5UVX0u5PC9od-5" style="edgeStyle=orthogonalEdgeStyle;rounded=0;orthogonalLoop=1;jettySize=auto;html=1;exitX=1;exitY=0.5;exitDx=0;exitDy=0;entryX=0;entryY=0.5;entryDx=0;entryDy=0;shape=flexArrow;" edge="1" parent="1" source="-eo6Yc6-5UVX0u5PC9od-7" target="-eo6Yc6-5UVX0u5PC9od-4">
          <mxGeometry relative="1" as="geometry" />
        </mxCell>
        <mxCell id="-eo6Yc6-5UVX0u5PC9od-6" style="edgeStyle=orthogonalEdgeStyle;rounded=0;orthogonalLoop=1;jettySize=auto;html=1;exitX=0.5;exitY=1;exitDx=0;exitDy=0;entryX=0.5;entryY=0;entryDx=0;entryDy=0;" edge="1" parent="1" source="-eo6Yc6-5UVX0u5PC9od-7" target="-eo6Yc6-5UVX0u5PC9od-21">
          <mxGeometry relative="1" as="geometry" />
        </mxCell>
        <mxCell id="-eo6Yc6-5UVX0u5PC9od-7" value="&lt;div style=&quot;background-color: rgb(255, 255, 255); font-family: Menlo, Monaco, &amp;quot;Courier New&amp;quot;, monospace; line-height: 18px;&quot;&gt;Create SDP based on the current media channel&lt;/div&gt;" style="rounded=1;whiteSpace=wrap;html=1;" vertex="1" parent="1">
          <mxGeometry x="-1340" y="347.5" width="120" height="60" as="geometry" />
        </mxCell>
        <mxCell id="-eo6Yc6-5UVX0u5PC9od-8" style="edgeStyle=orthogonalEdgeStyle;rounded=0;orthogonalLoop=1;jettySize=auto;html=1;exitX=0.5;exitY=1;exitDx=0;exitDy=0;" edge="1" parent="1" source="-eo6Yc6-5UVX0u5PC9od-11" target="-eo6Yc6-5UVX0u5PC9od-16">
          <mxGeometry relative="1" as="geometry" />
        </mxCell>
        <mxCell id="-eo6Yc6-5UVX0u5PC9od-9" style="edgeStyle=orthogonalEdgeStyle;rounded=0;orthogonalLoop=1;jettySize=auto;html=1;exitX=1;exitY=0.5;exitDx=0;exitDy=0;entryX=0;entryY=0.5;entryDx=0;entryDy=0;" edge="1" parent="1" source="-eo6Yc6-5UVX0u5PC9od-11" target="-eo6Yc6-5UVX0u5PC9od-12">
          <mxGeometry relative="1" as="geometry" />
        </mxCell>
        <mxCell id="-eo6Yc6-5UVX0u5PC9od-10" value="需要对所有provisional media做" style="edgeLabel;html=1;align=center;verticalAlign=middle;resizable=0;points=[];" vertex="1" connectable="0" parent="-eo6Yc6-5UVX0u5PC9od-9">
          <mxGeometry x="-0.2468" y="-2" relative="1" as="geometry">
            <mxPoint as="offset" />
          </mxGeometry>
        </mxCell>
        <mxCell id="-eo6Yc6-5UVX0u5PC9od-11" value="&lt;div style=&quot;background-color: rgb(255, 255, 255); font-family: Menlo, Monaco, &amp;quot;Courier New&amp;quot;, monospace; line-height: 18px;&quot;&gt;&lt;div&gt;Get media transport info from the specified transport and all underlying &lt;/div&gt;&lt;div&gt;&lt;span style=&quot;color: #008000;&quot;&gt; * transports if any. The transport also contains information about socket info&lt;/span&gt;&lt;/div&gt;&lt;div&gt;&lt;span style=&quot;color: #008000;&quot;&gt; * which describes the local address of the transport, and would be needed&lt;/span&gt;&lt;/div&gt;&lt;div&gt;&lt;span style=&quot;color: #008000;&quot;&gt; * for example to fill in the &quot;c=&quot; and &quot;m=&quot; line of local SDP.&lt;/span&gt;&lt;/div&gt;&lt;/div&gt;" style="rounded=1;whiteSpace=wrap;html=1;" vertex="1" parent="1">
          <mxGeometry x="-840" y="-127.5" width="143" height="365" as="geometry" />
        </mxCell>
        <mxCell id="-eo6Yc6-5UVX0u5PC9od-12" value="&lt;div style=&quot;background-color: rgb(255, 255, 255); font-family: Menlo, Monaco, &amp;quot;Courier New&amp;quot;, monospace; line-height: 18px;&quot;&gt;pjmedia_transport_get_info&lt;/div&gt;" style="whiteSpace=wrap;html=1;" vertex="1" parent="1">
          <mxGeometry x="-493" y="25" width="120" height="60" as="geometry" />
        </mxCell>
        <mxCell id="-eo6Yc6-5UVX0u5PC9od-13" style="edgeStyle=orthogonalEdgeStyle;rounded=0;orthogonalLoop=1;jettySize=auto;html=1;exitX=1;exitY=0.5;exitDx=0;exitDy=0;entryX=0;entryY=0.5;entryDx=0;entryDy=0;" edge="1" parent="1" source="-eo6Yc6-5UVX0u5PC9od-16" target="-eo6Yc6-5UVX0u5PC9od-17">
          <mxGeometry relative="1" as="geometry" />
        </mxCell>
        <mxCell id="-eo6Yc6-5UVX0u5PC9od-14" value="no media line" style="edgeLabel;html=1;align=center;verticalAlign=middle;resizable=0;points=[];" vertex="1" connectable="0" parent="-eo6Yc6-5UVX0u5PC9od-13">
          <mxGeometry x="-0.3648" relative="1" as="geometry">
            <mxPoint as="offset" />
          </mxGeometry>
        </mxCell>
        <mxCell id="-eo6Yc6-5UVX0u5PC9od-15" value="" style="edgeStyle=orthogonalEdgeStyle;rounded=0;orthogonalLoop=1;jettySize=auto;html=1;" edge="1" parent="1" source="-eo6Yc6-5UVX0u5PC9od-16" target="-eo6Yc6-5UVX0u5PC9od-18">
          <mxGeometry relative="1" as="geometry" />
        </mxCell>
        <mxCell id="-eo6Yc6-5UVX0u5PC9od-16" value="&lt;div style=&quot;background-color: rgb(255, 255, 255); font-family: Menlo, Monaco, &amp;quot;Courier New&amp;quot;, monospace; line-height: 18px;&quot;&gt;Create the base (blank) SDP&lt;/div&gt;" style="rounded=1;whiteSpace=wrap;html=1;" vertex="1" parent="1">
          <mxGeometry x="-838.5" y="287.5" width="140" height="80" as="geometry" />
        </mxCell>
        <mxCell id="-eo6Yc6-5UVX0u5PC9od-17" value="&lt;div style=&quot;background-color: rgb(255, 255, 255); font-family: Menlo, Monaco, &amp;quot;Courier New&amp;quot;, monospace; line-height: 18px;&quot;&gt;pjmedia_endpt_create_base_sdp&lt;/div&gt;" style="whiteSpace=wrap;html=1;" vertex="1" parent="1">
          <mxGeometry x="-500" y="297.5" width="120" height="60" as="geometry" />
        </mxCell>
        <mxCell id="-eo6Yc6-5UVX0u5PC9od-18" value="&lt;div style=&quot;background-color: rgb(255, 255, 255); font-family: Menlo, Monaco, &amp;quot;Courier New&amp;quot;, monospace; line-height: 18px;&quot;&gt;Process each media line&lt;/div&gt;" style="rounded=1;whiteSpace=wrap;html=1;" vertex="1" parent="1">
          <mxGeometry x="-838" y="407.5" width="138" height="70" as="geometry" />
        </mxCell>
        <mxCell id="-eo6Yc6-5UVX0u5PC9od-19" style="edgeStyle=orthogonalEdgeStyle;rounded=0;orthogonalLoop=1;jettySize=auto;html=1;exitX=1;exitY=0.5;exitDx=0;exitDy=0;entryX=0;entryY=0.5;entryDx=0;entryDy=0;" edge="1" parent="1" source="-eo6Yc6-5UVX0u5PC9od-21" target="-eo6Yc6-5UVX0u5PC9od-23">
          <mxGeometry relative="1" as="geometry" />
        </mxCell>
        <mxCell id="-eo6Yc6-5UVX0u5PC9od-20" value="" style="edgeStyle=orthogonalEdgeStyle;rounded=0;orthogonalLoop=1;jettySize=auto;html=1;" edge="1" parent="1" source="-eo6Yc6-5UVX0u5PC9od-21" target="-eo6Yc6-5UVX0u5PC9od-29">
          <mxGeometry relative="1" as="geometry" />
        </mxCell>
        <mxCell id="-eo6Yc6-5UVX0u5PC9od-21" value="&lt;div style=&quot;background-color: rgb(255, 255, 255); font-family: Menlo, Monaco, &amp;quot;Courier New&amp;quot;, monospace; line-height: 18px;&quot;&gt;Create UAC invite session.&lt;/div&gt;" style="rounded=1;whiteSpace=wrap;html=1;" vertex="1" parent="1">
          <mxGeometry x="-1340" y="500" width="120" height="60" as="geometry" />
        </mxCell>
        <mxCell id="-eo6Yc6-5UVX0u5PC9od-22" value="" style="edgeStyle=orthogonalEdgeStyle;rounded=0;orthogonalLoop=1;jettySize=auto;html=1;" edge="1" parent="1" source="-eo6Yc6-5UVX0u5PC9od-23" target="-eo6Yc6-5UVX0u5PC9od-25">
          <mxGeometry relative="1" as="geometry" />
        </mxCell>
        <mxCell id="-eo6Yc6-5UVX0u5PC9od-23" value="&lt;div style=&quot;background-color: rgb(255, 255, 255); font-family: Menlo, Monaco, &amp;quot;Courier New&amp;quot;, monospace; line-height: 18px;&quot;&gt;pjsip_inv_create_uac&lt;/div&gt;" style="rounded=0;whiteSpace=wrap;html=1;" vertex="1" parent="1">
          <mxGeometry x="-1160" y="500" width="120" height="60" as="geometry" />
        </mxCell>
        <mxCell id="-eo6Yc6-5UVX0u5PC9od-24" value="" style="edgeStyle=orthogonalEdgeStyle;rounded=0;orthogonalLoop=1;jettySize=auto;html=1;" edge="1" parent="1" source="-eo6Yc6-5UVX0u5PC9od-25" target="-eo6Yc6-5UVX0u5PC9od-27">
          <mxGeometry relative="1" as="geometry" />
        </mxCell>
        <mxCell id="-eo6Yc6-5UVX0u5PC9od-25" value="&lt;div style=&quot;background-color: rgb(255, 255, 255); font-family: Menlo, Monaco, &amp;quot;Courier New&amp;quot;, monospace; line-height: 18px;&quot;&gt;Create the session&lt;/div&gt;" style="rounded=1;whiteSpace=wrap;html=1;" vertex="1" parent="1">
          <mxGeometry x="-1020" y="500" width="120" height="60" as="geometry" />
        </mxCell>
        <mxCell id="-eo6Yc6-5UVX0u5PC9od-26" value="" style="edgeStyle=orthogonalEdgeStyle;rounded=0;orthogonalLoop=1;jettySize=auto;html=1;" edge="1" parent="1" source="-eo6Yc6-5UVX0u5PC9od-27" target="-eo6Yc6-5UVX0u5PC9od-37">
          <mxGeometry relative="1" as="geometry" />
        </mxCell>
        <mxCell id="-eo6Yc6-5UVX0u5PC9od-27" value="&lt;div style=&quot;background-color: rgb(255, 255, 255); font-family: Menlo, Monaco, &amp;quot;Courier New&amp;quot;, monospace; line-height: 18px;&quot;&gt;Register invite as dialog usage.&lt;/div&gt;" style="rounded=1;whiteSpace=wrap;html=1;" vertex="1" parent="1">
          <mxGeometry x="-1020" y="595" width="120" height="60" as="geometry" />
        </mxCell>
        <mxCell id="-eo6Yc6-5UVX0u5PC9od-28" value="" style="edgeStyle=orthogonalEdgeStyle;rounded=0;orthogonalLoop=1;jettySize=auto;html=1;" edge="1" parent="1" source="-eo6Yc6-5UVX0u5PC9od-29" target="-eo6Yc6-5UVX0u5PC9od-31">
          <mxGeometry relative="1" as="geometry" />
        </mxCell>
        <mxCell id="-eo6Yc6-5UVX0u5PC9od-29" value="&lt;div style=&quot;background-color: rgb(255, 255, 255); font-family: Menlo, Monaco, &amp;quot;Courier New&amp;quot;, monospace; line-height: 18px;&quot;&gt;Init Session Timers&lt;/div&gt;" style="rounded=1;whiteSpace=wrap;html=1;" vertex="1" parent="1">
          <mxGeometry x="-1340" y="615" width="120" height="60" as="geometry" />
        </mxCell>
        <mxCell id="-eo6Yc6-5UVX0u5PC9od-30" value="" style="edgeStyle=orthogonalEdgeStyle;rounded=0;orthogonalLoop=1;jettySize=auto;html=1;" edge="1" parent="1" source="-eo6Yc6-5UVX0u5PC9od-31" target="-eo6Yc6-5UVX0u5PC9od-33">
          <mxGeometry relative="1" as="geometry" />
        </mxCell>
        <mxCell id="-eo6Yc6-5UVX0u5PC9od-31" value="&lt;div style=&quot;background-color: rgb(255, 255, 255); font-family: Menlo, Monaco, &amp;quot;Courier New&amp;quot;, monospace; line-height: 18px;&quot;&gt;Create and associate our data in the session.&lt;/div&gt;" style="rounded=1;whiteSpace=wrap;html=1;" vertex="1" parent="1">
          <mxGeometry x="-1340" y="715" width="120" height="85" as="geometry" />
        </mxCell>
        <mxCell id="-eo6Yc6-5UVX0u5PC9od-32" value="" style="edgeStyle=orthogonalEdgeStyle;rounded=0;orthogonalLoop=1;jettySize=auto;html=1;" edge="1" parent="1" source="-eo6Yc6-5UVX0u5PC9od-33" target="-eo6Yc6-5UVX0u5PC9od-36">
          <mxGeometry relative="1" as="geometry" />
        </mxCell>
        <mxCell id="-eo6Yc6-5UVX0u5PC9od-33" value="&lt;div style=&quot;background-color: rgb(255, 255, 255); font-family: Menlo, Monaco, &amp;quot;Courier New&amp;quot;, monospace; line-height: 18px;&quot;&gt;Set dialog&#39;s transport based on acc&#39;s config&lt;/div&gt;" style="rounded=1;whiteSpace=wrap;html=1;" vertex="1" parent="1">
          <mxGeometry x="-1340" y="835" width="120" height="60" as="geometry" />
        </mxCell>
        <mxCell id="-eo6Yc6-5UVX0u5PC9od-34" value="" style="edgeStyle=orthogonalEdgeStyle;rounded=0;orthogonalLoop=1;jettySize=auto;html=1;" edge="1" parent="1" source="-eo6Yc6-5UVX0u5PC9od-36" target="-eo6Yc6-5UVX0u5PC9od-39">
          <mxGeometry relative="1" as="geometry" />
        </mxCell>
        <mxCell id="-eo6Yc6-5UVX0u5PC9od-35" value="" style="edgeStyle=orthogonalEdgeStyle;rounded=0;orthogonalLoop=1;jettySize=auto;html=1;" edge="1" parent="1" source="-eo6Yc6-5UVX0u5PC9od-36" target="-eo6Yc6-5UVX0u5PC9od-57">
          <mxGeometry relative="1" as="geometry" />
        </mxCell>
        <mxCell id="-eo6Yc6-5UVX0u5PC9od-36" value="&lt;div style=&quot;background-color: rgb(255, 255, 255); font-family: Menlo, Monaco, &amp;quot;Courier New&amp;quot;, monospace; line-height: 18px;&quot;&gt;&lt;div style=&quot;line-height: 18px;&quot;&gt;Create initial INVITE request.&lt;/div&gt;&lt;/div&gt;" style="rounded=1;whiteSpace=wrap;html=1;" vertex="1" parent="1">
          <mxGeometry x="-1340" y="930" width="120" height="60" as="geometry" />
        </mxCell>
        <mxCell id="-eo6Yc6-5UVX0u5PC9od-37" value="&lt;div style=&quot;background-color: rgb(255, 255, 255); font-family: Menlo, Monaco, &amp;quot;Courier New&amp;quot;, monospace; line-height: 18px;&quot;&gt;pjsip_dlg_add_usage&lt;/div&gt;" style="rounded=0;whiteSpace=wrap;html=1;" vertex="1" parent="1">
          <mxGeometry x="-838" y="595" width="120" height="60" as="geometry" />
        </mxCell>
        <mxCell id="-eo6Yc6-5UVX0u5PC9od-38" style="edgeStyle=orthogonalEdgeStyle;rounded=0;orthogonalLoop=1;jettySize=auto;html=1;exitX=1;exitY=0.5;exitDx=0;exitDy=0;entryX=0;entryY=0.5;entryDx=0;entryDy=0;" edge="1" parent="1" source="-eo6Yc6-5UVX0u5PC9od-39" target="-eo6Yc6-5UVX0u5PC9od-42">
          <mxGeometry relative="1" as="geometry" />
        </mxCell>
        <mxCell id="-eo6Yc6-5UVX0u5PC9od-39" value="&lt;div style=&quot;background-color: rgb(255, 255, 255); font-family: Menlo, Monaco, &amp;quot;Courier New&amp;quot;, monospace; line-height: 18px;&quot;&gt;pjsip_inv_invite&lt;/div&gt;" style="whiteSpace=wrap;html=1;" vertex="1" parent="1">
          <mxGeometry x="-1160" y="930" width="120" height="60" as="geometry" />
        </mxCell>
        <mxCell id="-eo6Yc6-5UVX0u5PC9od-40" value="" style="edgeStyle=orthogonalEdgeStyle;rounded=0;orthogonalLoop=1;jettySize=auto;html=1;" edge="1" parent="1" source="-eo6Yc6-5UVX0u5PC9od-42" target="-eo6Yc6-5UVX0u5PC9od-47">
          <mxGeometry relative="1" as="geometry" />
        </mxCell>
        <mxCell id="-eo6Yc6-5UVX0u5PC9od-41" value="" style="edgeStyle=orthogonalEdgeStyle;rounded=0;orthogonalLoop=1;jettySize=auto;html=1;" edge="1" parent="1" source="-eo6Yc6-5UVX0u5PC9od-42" target="-eo6Yc6-5UVX0u5PC9od-44">
          <mxGeometry relative="1" as="geometry" />
        </mxCell>
        <mxCell id="-eo6Yc6-5UVX0u5PC9od-42" value="&lt;div style=&quot;background-color: rgb(255, 255, 255); font-family: Menlo, Monaco, &amp;quot;Courier New&amp;quot;, monospace; line-height: 18px;&quot;&gt;Create the INVITE request.&lt;/div&gt;" style="rounded=1;whiteSpace=wrap;html=1;" vertex="1" parent="1">
          <mxGeometry x="-1000" y="700" width="120" height="60" as="geometry" />
        </mxCell>
        <mxCell id="-eo6Yc6-5UVX0u5PC9od-43" value="" style="edgeStyle=orthogonalEdgeStyle;rounded=0;orthogonalLoop=1;jettySize=auto;html=1;" edge="1" parent="1" source="-eo6Yc6-5UVX0u5PC9od-44" target="-eo6Yc6-5UVX0u5PC9od-51">
          <mxGeometry relative="1" as="geometry" />
        </mxCell>
        <mxCell id="-eo6Yc6-5UVX0u5PC9od-44" value="&lt;div style=&quot;background-color: rgb(255, 255, 255); font-family: Menlo, Monaco, &amp;quot;Courier New&amp;quot;, monospace; line-height: 18px;&quot;&gt;pjsip_dlg_create_request&lt;/div&gt;" style="whiteSpace=wrap;html=1;" vertex="1" parent="1">
          <mxGeometry x="-840" y="700" width="120" height="60" as="geometry" />
        </mxCell>
        <mxCell id="-eo6Yc6-5UVX0u5PC9od-45" value="" style="edgeStyle=orthogonalEdgeStyle;rounded=0;orthogonalLoop=1;jettySize=auto;html=1;" edge="1" parent="1" source="-eo6Yc6-5UVX0u5PC9od-47" target="-eo6Yc6-5UVX0u5PC9od-49">
          <mxGeometry relative="1" as="geometry" />
        </mxCell>
        <mxCell id="-eo6Yc6-5UVX0u5PC9od-46" style="edgeStyle=orthogonalEdgeStyle;rounded=0;orthogonalLoop=1;jettySize=auto;html=1;exitX=0.5;exitY=1;exitDx=0;exitDy=0;entryX=0.5;entryY=0;entryDx=0;entryDy=0;" edge="1" parent="1" source="-eo6Yc6-5UVX0u5PC9od-47" target="-eo6Yc6-5UVX0u5PC9od-55">
          <mxGeometry relative="1" as="geometry" />
        </mxCell>
        <mxCell id="-eo6Yc6-5UVX0u5PC9od-47" value="&lt;div style=&quot;background-color: rgb(255, 255, 255); font-family: Menlo, Monaco, &amp;quot;Courier New&amp;quot;, monospace; line-height: 18px;&quot;&gt;See if we have SDP to send.&amp;nbsp;Add SDP, if any.&lt;/div&gt;" style="rounded=1;whiteSpace=wrap;html=1;" vertex="1" parent="1">
          <mxGeometry x="-1000" y="800" width="120" height="60" as="geometry" />
        </mxCell>
        <mxCell id="-eo6Yc6-5UVX0u5PC9od-48" value="&lt;div style=&quot;background-color: rgb(255, 255, 255); font-family: Menlo, Monaco, &amp;quot;Courier New&amp;quot;, monospace; line-height: 18px;&quot;&gt;Add Require header&lt;/div&gt;" style="rounded=1;whiteSpace=wrap;html=1;" vertex="1" parent="1">
          <mxGeometry x="-1000" y="980" width="120" height="60" as="geometry" />
        </mxCell>
        <mxCell id="-eo6Yc6-5UVX0u5PC9od-49" value="&lt;div style=&quot;background-color: rgb(255, 255, 255); font-family: Menlo, Monaco, &amp;quot;Courier New&amp;quot;, monospace; line-height: 18px;&quot;&gt;pjsip_msg_add_hdr&lt;/div&gt;" style="whiteSpace=wrap;html=1;" vertex="1" parent="1">
          <mxGeometry x="-840" y="800" width="120" height="60" as="geometry" />
        </mxCell>
        <mxCell id="-eo6Yc6-5UVX0u5PC9od-50" value="" style="edgeStyle=orthogonalEdgeStyle;rounded=0;orthogonalLoop=1;jettySize=auto;html=1;" edge="1" parent="1" source="-eo6Yc6-5UVX0u5PC9od-51" target="-eo6Yc6-5UVX0u5PC9od-52">
          <mxGeometry relative="1" as="geometry" />
        </mxCell>
        <mxCell id="-eo6Yc6-5UVX0u5PC9od-51" value="&lt;div style=&quot;background-color: rgb(255, 255, 255); font-family: Menlo, Monaco, &amp;quot;Courier New&amp;quot;, monospace; line-height: 18px;&quot;&gt;&lt;div style=&quot;line-height: 18px;&quot;&gt;Create a new request within dialog&lt;/div&gt;&lt;/div&gt;" style="rounded=1;whiteSpace=wrap;html=1;" vertex="1" parent="1">
          <mxGeometry x="-680" y="700" width="120" height="60" as="geometry" />
        </mxCell>
        <mxCell id="-eo6Yc6-5UVX0u5PC9od-52" value="&lt;div style=&quot;background-color: rgb(255, 255, 255); font-family: Menlo, Monaco, &amp;quot;Courier New&amp;quot;, monospace; line-height: 18px;&quot;&gt;dlg_create_request_throw&lt;/div&gt;" style="whiteSpace=wrap;html=1;" vertex="1" parent="1">
          <mxGeometry x="-523" y="700" width="120" height="60" as="geometry" />
        </mxCell>
        <mxCell id="-eo6Yc6-5UVX0u5PC9od-53" value="&lt;div style=&quot;background-color: rgb(255, 255, 255); font-family: Menlo, Monaco, &amp;quot;Courier New&amp;quot;, monospace; line-height: 18px;&quot;&gt;pjsip_get_invite_method&lt;/div&gt;" style="text;html=1;align=center;verticalAlign=middle;resizable=0;points=[];autosize=1;strokeColor=none;fillColor=none;" vertex="1" parent="1">
          <mxGeometry x="-870" y="670" width="190" height="30" as="geometry" />
        </mxCell>
        <mxCell id="-eo6Yc6-5UVX0u5PC9od-54" value="" style="edgeStyle=orthogonalEdgeStyle;rounded=0;orthogonalLoop=1;jettySize=auto;html=1;" edge="1" parent="1" source="-eo6Yc6-5UVX0u5PC9od-55" target="-eo6Yc6-5UVX0u5PC9od-48">
          <mxGeometry relative="1" as="geometry" />
        </mxCell>
        <mxCell id="-eo6Yc6-5UVX0u5PC9od-55" value="&lt;div style=&quot;background-color: rgb(255, 255, 255); font-family: Menlo, Monaco, &amp;quot;Courier New&amp;quot;, monospace; line-height: 18px;&quot;&gt;Add Supported header&lt;/div&gt;" style="rounded=1;whiteSpace=wrap;html=1;" vertex="1" parent="1">
          <mxGeometry x="-1000" y="890" width="120" height="60" as="geometry" />
        </mxCell>
        <mxCell id="-eo6Yc6-5UVX0u5PC9od-56" value="" style="edgeStyle=orthogonalEdgeStyle;rounded=0;orthogonalLoop=1;jettySize=auto;html=1;" edge="1" parent="1" source="-eo6Yc6-5UVX0u5PC9od-57" target="-eo6Yc6-5UVX0u5PC9od-58">
          <mxGeometry relative="1" as="geometry" />
        </mxCell>
        <mxCell id="-eo6Yc6-5UVX0u5PC9od-57" value="&lt;meta charset=&quot;utf-8&quot;&gt;&lt;div style=&quot;color: rgb(0, 0, 0); background-color: rgb(255, 255, 255); font-family: Menlo, Monaco, &amp;quot;Courier New&amp;quot;, monospace; font-weight: normal; font-size: 12px; line-height: 18px;&quot;&gt;&lt;div&gt;&lt;span style=&quot;color: #008000;&quot;&gt;Send initial INVITE&lt;/span&gt;&lt;/div&gt;&lt;/div&gt;" style="rounded=1;whiteSpace=wrap;html=1;" vertex="1" parent="1">
          <mxGeometry x="-1340" y="1060" width="120" height="60" as="geometry" />
        </mxCell>
        <mxCell id="-eo6Yc6-5UVX0u5PC9od-58" value="&lt;div style=&quot;background-color: rgb(255, 255, 255); font-family: Menlo, Monaco, &amp;quot;Courier New&amp;quot;, monospace; line-height: 18px;&quot;&gt;pjsip_inv_send_msg&lt;/div&gt;" style="whiteSpace=wrap;html=1;" vertex="1" parent="1">
          <mxGeometry x="-1160" y="1060" width="120" height="60" as="geometry" />
        </mxCell>
        <mxCell id="-eo6Yc6-5UVX0u5PC9od-59" style="edgeStyle=orthogonalEdgeStyle;rounded=0;orthogonalLoop=1;jettySize=auto;html=1;exitX=1;exitY=0.5;exitDx=0;exitDy=0;entryX=0;entryY=0.5;entryDx=0;entryDy=0;" edge="1" parent="1" source="-eo6Yc6-5UVX0u5PC9od-60" target="-eo6Yc6-5UVX0u5PC9od-63">
          <mxGeometry relative="1" as="geometry" />
        </mxCell>
        <mxCell id="-eo6Yc6-5UVX0u5PC9od-60" value="Send request message to remote peer. If the request is not an ACK request, the dialog will send the request statefully, by creating an UAC transaction and send the request with the transaction. Also when the request is not ACK or CANCEL, the dialog will increment its local cseq number and update the cseq in the request according to dialog&#39;s cseq. If p_tsx is not null, this argument will be set with the transaction instance that was used to send the request. This function will decrement the transmit data&#39;s reference counter regardless the status of the operation." style="rounded=1;whiteSpace=wrap;html=1;" vertex="1" parent="1">
          <mxGeometry x="-1000" y="1070" width="120" height="420" as="geometry" />
        </mxCell>
        <mxCell id="-eo6Yc6-5UVX0u5PC9od-61" style="edgeStyle=orthogonalEdgeStyle;rounded=0;orthogonalLoop=1;jettySize=auto;html=1;exitX=1;exitY=0.5;exitDx=0;exitDy=0;entryX=0.014;entryY=0.602;entryDx=0;entryDy=0;entryPerimeter=0;" edge="1" parent="1" source="-eo6Yc6-5UVX0u5PC9od-58" target="-eo6Yc6-5UVX0u5PC9od-60">
          <mxGeometry relative="1" as="geometry" />
        </mxCell>
        <mxCell id="-eo6Yc6-5UVX0u5PC9od-62" value="" style="edgeStyle=orthogonalEdgeStyle;rounded=0;orthogonalLoop=1;jettySize=auto;html=1;" edge="1" parent="1" source="-eo6Yc6-5UVX0u5PC9od-63" target="-eo6Yc6-5UVX0u5PC9od-65">
          <mxGeometry relative="1" as="geometry" />
        </mxCell>
        <mxCell id="-eo6Yc6-5UVX0u5PC9od-63" value="&lt;div style=&quot;background-color: rgb(255, 255, 255); font-family: Menlo, Monaco, &amp;quot;Courier New&amp;quot;, monospace; line-height: 18px;&quot;&gt;pjsip_dlg_send_request&lt;/div&gt;" style="whiteSpace=wrap;html=1;" vertex="1" parent="1">
          <mxGeometry x="-829" y="1070" width="120" height="60" as="geometry" />
        </mxCell>
        <mxCell id="-eo6Yc6-5UVX0u5PC9od-64" style="edgeStyle=orthogonalEdgeStyle;rounded=0;orthogonalLoop=1;jettySize=auto;html=1;exitX=0.5;exitY=1;exitDx=0;exitDy=0;entryX=0.5;entryY=0;entryDx=0;entryDy=0;" edge="1" parent="1" source="-eo6Yc6-5UVX0u5PC9od-65" target="-eo6Yc6-5UVX0u5PC9od-68">
          <mxGeometry relative="1" as="geometry" />
        </mxCell>
        <mxCell id="-eo6Yc6-5UVX0u5PC9od-65" value="&lt;div style=&quot;background-color: rgb(255, 255, 255); font-family: Menlo, Monaco, &amp;quot;Courier New&amp;quot;, monospace; line-height: 18px;&quot;&gt;Update dialog&#39;s CSeq and message&#39;s CSeq&lt;/div&gt;" style="rounded=1;whiteSpace=wrap;html=1;" vertex="1" parent="1">
          <mxGeometry x="-660" y="1070" width="120" height="60" as="geometry" />
        </mxCell>
        <mxCell id="-eo6Yc6-5UVX0u5PC9od-66" value="" style="edgeStyle=orthogonalEdgeStyle;rounded=0;orthogonalLoop=1;jettySize=auto;html=1;" edge="1" parent="1" source="-eo6Yc6-5UVX0u5PC9od-68" target="-eo6Yc6-5UVX0u5PC9od-71">
          <mxGeometry relative="1" as="geometry" />
        </mxCell>
        <mxCell id="-eo6Yc6-5UVX0u5PC9od-67" value="" style="edgeStyle=orthogonalEdgeStyle;rounded=0;orthogonalLoop=1;jettySize=auto;html=1;" edge="1" parent="1" source="-eo6Yc6-5UVX0u5PC9od-68" target="-eo6Yc6-5UVX0u5PC9od-85">
          <mxGeometry relative="1" as="geometry" />
        </mxCell>
        <mxCell id="-eo6Yc6-5UVX0u5PC9od-68" value="&lt;div style=&quot;background-color: rgb(255, 255, 255); font-family: Menlo, Monaco, &amp;quot;Courier New&amp;quot;, monospace; line-height: 18px;&quot;&gt;&lt;div style=&quot;line-height: 18px;&quot;&gt;&lt;div style=&quot;line-height: 18px;&quot;&gt;Create, initialize, and register a new transaction as UAC from the specified transmit data (tdata).&amp;nbsp;&lt;br&gt;&lt;/div&gt;&lt;/div&gt;&lt;/div&gt;" style="rounded=1;whiteSpace=wrap;html=1;" vertex="1" parent="1">
          <mxGeometry x="-660" y="1160" width="120" height="170" as="geometry" />
        </mxCell>
        <mxCell id="-eo6Yc6-5UVX0u5PC9od-69" value="&lt;div style=&quot;background-color: rgb(255, 255, 255); font-family: Menlo, Monaco, &amp;quot;Courier New&amp;quot;, monospace; line-height: 18px;&quot;&gt;tdata&amp;nbsp;&lt;/div&gt;initial INVITE request 的数据结构" style="text;html=1;align=center;verticalAlign=middle;resizable=0;points=[];autosize=1;strokeColor=none;fillColor=none;" vertex="1" parent="1">
          <mxGeometry x="-1200" y="880" width="200" height="50" as="geometry" />
        </mxCell>
        <mxCell id="-eo6Yc6-5UVX0u5PC9od-70" style="edgeStyle=orthogonalEdgeStyle;rounded=0;orthogonalLoop=1;jettySize=auto;html=1;exitX=1;exitY=0.5;exitDx=0;exitDy=0;entryX=0;entryY=0.5;entryDx=0;entryDy=0;" edge="1" parent="1" source="-eo6Yc6-5UVX0u5PC9od-71" target="-eo6Yc6-5UVX0u5PC9od-74">
          <mxGeometry relative="1" as="geometry" />
        </mxCell>
        <mxCell id="-eo6Yc6-5UVX0u5PC9od-71" value="&lt;div style=&quot;background-color: rgb(255, 255, 255); font-family: Menlo, Monaco, &amp;quot;Courier New&amp;quot;, monospace; line-height: 18px;&quot;&gt;pjsip_tsx_create_uac2&amp;amp;&lt;/div&gt;&lt;div style=&quot;background-color: rgb(255, 255, 255); font-family: Menlo, Monaco, &amp;quot;Courier New&amp;quot;, monospace; line-height: 18px;&quot;&gt;pjsip_tsx_create_uac2&lt;/div&gt;" style="whiteSpace=wrap;html=1;" vertex="1" parent="1">
          <mxGeometry x="-460" y="1215" width="120" height="60" as="geometry" />
        </mxCell>
        <mxCell id="-eo6Yc6-5UVX0u5PC9od-72" value="" style="edgeStyle=orthogonalEdgeStyle;rounded=0;orthogonalLoop=1;jettySize=auto;html=1;" edge="1" parent="1" source="-eo6Yc6-5UVX0u5PC9od-74" target="-eo6Yc6-5UVX0u5PC9od-75">
          <mxGeometry relative="1" as="geometry" />
        </mxCell>
        <mxCell id="-eo6Yc6-5UVX0u5PC9od-73" style="edgeStyle=orthogonalEdgeStyle;rounded=0;orthogonalLoop=1;jettySize=auto;html=1;exitX=0.5;exitY=1;exitDx=0;exitDy=0;entryX=0.5;entryY=0;entryDx=0;entryDy=0;" edge="1" parent="1" source="-eo6Yc6-5UVX0u5PC9od-74" target="-eo6Yc6-5UVX0u5PC9od-77">
          <mxGeometry relative="1" as="geometry" />
        </mxCell>
        <mxCell id="-eo6Yc6-5UVX0u5PC9od-74" value="&lt;div style=&quot;background-color: rgb(255, 255, 255); font-family: Menlo, Monaco, &amp;quot;Courier New&amp;quot;, monospace; line-height: 18px;&quot;&gt;Create transaction instance&lt;/div&gt;" style="rounded=1;whiteSpace=wrap;html=1;" vertex="1" parent="1">
          <mxGeometry x="-280" y="1080" width="120" height="60" as="geometry" />
        </mxCell>
        <mxCell id="-eo6Yc6-5UVX0u5PC9od-75" value="&lt;meta charset=&quot;utf-8&quot;&gt;&lt;div style=&quot;color: rgb(0, 0, 0); background-color: rgb(255, 255, 255); font-family: Menlo, Monaco, &amp;quot;Courier New&amp;quot;, monospace; font-weight: normal; font-size: 12px; line-height: 18px;&quot;&gt;&lt;div&gt;&lt;span style=&quot;color: #74531f;&quot;&gt;tsx_create&lt;/span&gt;&lt;/div&gt;&lt;/div&gt;" style="whiteSpace=wrap;html=1;" vertex="1" parent="1">
          <mxGeometry x="-90" y="1080" width="120" height="60" as="geometry" />
        </mxCell>
        <mxCell id="-eo6Yc6-5UVX0u5PC9od-76" style="edgeStyle=orthogonalEdgeStyle;rounded=0;orthogonalLoop=1;jettySize=auto;html=1;exitX=0.5;exitY=1;exitDx=0;exitDy=0;" edge="1" parent="1" source="-eo6Yc6-5UVX0u5PC9od-77" target="-eo6Yc6-5UVX0u5PC9od-79">
          <mxGeometry relative="1" as="geometry" />
        </mxCell>
        <mxCell id="-eo6Yc6-5UVX0u5PC9od-77" value="ROLE、method、CSeq、Generate Via" style="rounded=1;whiteSpace=wrap;html=1;" vertex="1" parent="1">
          <mxGeometry x="-280" y="1165" width="120" height="60" as="geometry" />
        </mxCell>
        <mxCell id="-eo6Yc6-5UVX0u5PC9od-78" style="edgeStyle=orthogonalEdgeStyle;rounded=0;orthogonalLoop=1;jettySize=auto;html=1;exitX=0.5;exitY=1;exitDx=0;exitDy=0;entryX=0.5;entryY=0;entryDx=0;entryDy=0;" edge="1" parent="1" source="-eo6Yc6-5UVX0u5PC9od-79" target="-eo6Yc6-5UVX0u5PC9od-81">
          <mxGeometry relative="1" as="geometry" />
        </mxCell>
        <mxCell id="-eo6Yc6-5UVX0u5PC9od-79" value="&lt;div style=&quot;background-color: rgb(255, 255, 255); font-family: Menlo, Monaco, &amp;quot;Courier New&amp;quot;, monospace; line-height: 18px;&quot;&gt;Generate transaction key.&lt;/div&gt;" style="rounded=1;whiteSpace=wrap;html=1;" vertex="1" parent="1">
          <mxGeometry x="-280" y="1245" width="120" height="60" as="geometry" />
        </mxCell>
        <mxCell id="-eo6Yc6-5UVX0u5PC9od-80" style="edgeStyle=orthogonalEdgeStyle;rounded=0;orthogonalLoop=1;jettySize=auto;html=1;exitX=0.5;exitY=1;exitDx=0;exitDy=0;entryX=0.5;entryY=0;entryDx=0;entryDy=0;" edge="1" parent="1" source="-eo6Yc6-5UVX0u5PC9od-81" target="-eo6Yc6-5UVX0u5PC9od-82">
          <mxGeometry relative="1" as="geometry" />
        </mxCell>
        <mxCell id="-eo6Yc6-5UVX0u5PC9od-81" value="&lt;div style=&quot;background-color: rgb(255, 255, 255); font-family: Menlo, Monaco, &amp;quot;Courier New&amp;quot;, monospace; line-height: 18px;&quot;&gt;Calculate hashed key value.&lt;/div&gt;" style="rounded=1;whiteSpace=wrap;html=1;" vertex="1" parent="1">
          <mxGeometry x="-280" y="1325" width="120" height="60" as="geometry" />
        </mxCell>
        <mxCell id="-eo6Yc6-5UVX0u5PC9od-82" value="&lt;div style=&quot;background-color: rgb(255, 255, 255); font-family: Menlo, Monaco, &amp;quot;Courier New&amp;quot;, monospace; line-height: 18px;&quot;&gt;Register transaction to hash table.&lt;/div&gt;" style="rounded=1;whiteSpace=wrap;html=1;" vertex="1" parent="1">
          <mxGeometry x="-280" y="1405" width="120" height="60" as="geometry" />
        </mxCell>
        <mxCell id="-eo6Yc6-5UVX0u5PC9od-83" value="" style="edgeStyle=orthogonalEdgeStyle;rounded=0;orthogonalLoop=1;jettySize=auto;html=1;" edge="1" parent="1" source="-eo6Yc6-5UVX0u5PC9od-85" target="-eo6Yc6-5UVX0u5PC9od-86">
          <mxGeometry relative="1" as="geometry" />
        </mxCell>
        <mxCell id="-eo6Yc6-5UVX0u5PC9od-84" value="" style="edgeStyle=orthogonalEdgeStyle;rounded=0;orthogonalLoop=1;jettySize=auto;html=1;" edge="1" parent="1" source="-eo6Yc6-5UVX0u5PC9od-85" target="-eo6Yc6-5UVX0u5PC9od-88">
          <mxGeometry relative="1" as="geometry" />
        </mxCell>
        <mxCell id="-eo6Yc6-5UVX0u5PC9od-85" value="&lt;div style=&quot;background-color: rgb(255, 255, 255); font-family: Menlo, Monaco, &amp;quot;Courier New&amp;quot;, monospace; line-height: 18px;&quot;&gt;Set transport selector&lt;/div&gt;" style="rounded=1;whiteSpace=wrap;html=1;" vertex="1" parent="1">
          <mxGeometry x="-660" y="1380" width="120" height="60" as="geometry" />
        </mxCell>
        <mxCell id="-eo6Yc6-5UVX0u5PC9od-86" value="&lt;div style=&quot;background-color: rgb(255, 255, 255); font-family: Menlo, Monaco, &amp;quot;Courier New&amp;quot;, monospace; line-height: 18px;&quot;&gt;pjsip_tsx_set_transport&lt;/div&gt;" style="rounded=0;whiteSpace=wrap;html=1;" vertex="1" parent="1">
          <mxGeometry x="-460" y="1380" width="120" height="60" as="geometry" />
        </mxCell>
        <mxCell id="-eo6Yc6-5UVX0u5PC9od-87" value="" style="edgeStyle=orthogonalEdgeStyle;rounded=0;orthogonalLoop=1;jettySize=auto;html=1;" edge="1" parent="1" source="-eo6Yc6-5UVX0u5PC9od-88" target="-eo6Yc6-5UVX0u5PC9od-90">
          <mxGeometry relative="1" as="geometry" />
        </mxCell>
        <mxCell id="-eo6Yc6-5UVX0u5PC9od-88" value="&lt;div style=&quot;background-color: rgb(255, 255, 255); font-family: Menlo, Monaco, &amp;quot;Courier New&amp;quot;, monospace; line-height: 18px;&quot;&gt;Send the message.&lt;/div&gt;" style="rounded=1;whiteSpace=wrap;html=1;" vertex="1" parent="1">
          <mxGeometry x="-660" y="1490" width="120" height="60" as="geometry" />
        </mxCell>
        <mxCell id="-eo6Yc6-5UVX0u5PC9od-89" style="edgeStyle=orthogonalEdgeStyle;rounded=0;orthogonalLoop=1;jettySize=auto;html=1;exitX=1;exitY=0.5;exitDx=0;exitDy=0;" edge="1" parent="1" source="-eo6Yc6-5UVX0u5PC9od-90" target="-eo6Yc6-5UVX0u5PC9od-92">
          <mxGeometry relative="1" as="geometry" />
        </mxCell>
        <mxCell id="-eo6Yc6-5UVX0u5PC9od-90" value="&lt;div style=&quot;background-color: rgb(255, 255, 255); font-family: Menlo, Monaco, &amp;quot;Courier New&amp;quot;, monospace; line-height: 18px;&quot;&gt;pjsip_tsx_send_msg&lt;/div&gt;" style="whiteSpace=wrap;html=1;" vertex="1" parent="1">
          <mxGeometry x="-460" y="1490" width="120" height="60" as="geometry" />
        </mxCell>
        <mxCell id="-eo6Yc6-5UVX0u5PC9od-91" style="edgeStyle=orthogonalEdgeStyle;rounded=0;orthogonalLoop=1;jettySize=auto;html=1;exitX=0.5;exitY=1;exitDx=0;exitDy=0;" edge="1" parent="1" source="-eo6Yc6-5UVX0u5PC9od-92" target="-eo6Yc6-5UVX0u5PC9od-94">
          <mxGeometry relative="1" as="geometry" />
        </mxCell>
        <mxCell id="-eo6Yc6-5UVX0u5PC9od-92" value="&lt;div style=&quot;background-color: rgb(255, 255, 255); font-family: Menlo, Monaco, &amp;quot;Courier New&amp;quot;, monospace; line-height: 18px;&quot;&gt;Dispatch to transaction&lt;/div&gt;" style="rounded=1;whiteSpace=wrap;html=1;" vertex="1" parent="1">
          <mxGeometry x="-270" y="1490" width="120" height="60" as="geometry" />
        </mxCell>
        <mxCell id="-eo6Yc6-5UVX0u5PC9od-93" style="edgeStyle=orthogonalEdgeStyle;rounded=0;orthogonalLoop=1;jettySize=auto;html=1;exitX=0.5;exitY=1;exitDx=0;exitDy=0;" edge="1" parent="1" source="-eo6Yc6-5UVX0u5PC9od-94" target="-eo6Yc6-5UVX0u5PC9od-96">
          <mxGeometry relative="1" as="geometry" />
        </mxCell>
        <mxCell id="-eo6Yc6-5UVX0u5PC9od-94" value="&lt;div style=&quot;background-color: rgb(255, 255, 255); font-family: Menlo, Monaco, &amp;quot;Courier New&amp;quot;, monospace; line-height: 18px;&quot;&gt;Set transport selector to tdata&lt;/div&gt;" style="rounded=1;whiteSpace=wrap;html=1;" vertex="1" parent="1">
          <mxGeometry x="-270" y="1580" width="120" height="60" as="geometry" />
        </mxCell>
        <mxCell id="-eo6Yc6-5UVX0u5PC9od-95" value="" style="edgeStyle=orthogonalEdgeStyle;rounded=0;orthogonalLoop=1;jettySize=auto;html=1;" edge="1" parent="1" source="-eo6Yc6-5UVX0u5PC9od-96" target="-eo6Yc6-5UVX0u5PC9od-97">
          <mxGeometry relative="1" as="geometry" />
        </mxCell>
        <mxCell id="-eo6Yc6-5UVX0u5PC9od-96" value="&lt;div style=&quot;background-color: rgb(255, 255, 255); font-family: Menlo, Monaco, &amp;quot;Courier New&amp;quot;, monospace; line-height: 18px;&quot;&gt;Dispatch to state handler&lt;/div&gt;" style="rounded=1;whiteSpace=wrap;html=1;" vertex="1" parent="1">
          <mxGeometry x="-270" y="1670" width="120" height="60" as="geometry" />
        </mxCell>
        <mxCell id="-eo6Yc6-5UVX0u5PC9od-97" value="&lt;div style=&quot;background-color: rgb(255, 255, 255); font-family: Menlo, Monaco, &amp;quot;Courier New&amp;quot;, monospace; line-height: 18px;&quot;&gt;(*tsx-&amp;gt;state_handler)(&lt;span style=&quot;color: #808080;&quot;&gt;tsx&lt;/span&gt;, &amp;amp;&lt;span style=&quot;color: #1f377f;&quot;&gt;event&lt;/span&gt;)&lt;/div&gt;&lt;div style=&quot;background-color: rgb(255, 255, 255); font-family: Menlo, Monaco, &amp;quot;Courier New&amp;quot;, monospace; line-height: 18px;&quot;&gt;&lt;br&gt;&lt;/div&gt;&lt;div style=&quot;background-color: rgb(255, 255, 255); font-family: Menlo, Monaco, &amp;quot;Courier New&amp;quot;, monospace; line-height: 18px;&quot;&gt;&lt;div style=&quot;line-height: 18px;&quot;&gt;tsx_on_state_null&lt;/div&gt;&lt;/div&gt;" style="whiteSpace=wrap;html=1;" vertex="1" parent="1">
          <mxGeometry x="-80" y="1640" width="140" height="120" as="geometry" />
        </mxCell>
        <mxCell id="-eo6Yc6-5UVX0u5PC9od-98" value="&lt;div style=&quot;background-color: rgb(255, 255, 255); font-family: Menlo, Monaco, &amp;quot;Courier New&amp;quot;, monospace; line-height: 18px;&quot;&gt;tsx-&amp;gt;state_handler = &amp;amp;&lt;span style=&quot;color: #74531f;&quot;&gt;tsx_on_state_null&lt;/span&gt;;&lt;/div&gt;" style="whiteSpace=wrap;html=1;" vertex="1" parent="1">
          <mxGeometry x="-95" y="1280" width="150" height="60" as="geometry" />
        </mxCell>
        <mxCell id="-eo6Yc6-5UVX0u5PC9od-99" value="" style="endArrow=classic;html=1;rounded=0;entryX=0;entryY=0.5;entryDx=0;entryDy=0;" edge="1" parent="1" target="-eo6Yc6-5UVX0u5PC9od-98">
          <mxGeometry width="50" height="50" relative="1" as="geometry">
            <mxPoint x="-220" y="1310" as="sourcePoint" />
            <mxPoint x="-90" y="1270" as="targetPoint" />
          </mxGeometry>
        </mxCell>
      </root>
    </mxGraphModel>
  </diagram>
</mxfile>
